<svg xmlns="http://www.w3.org/2000/svg" width="90" height="90" viewBox="0 0 90 90">
  <path id="opensea" d="M45,0A45,45,0,1,0,90,45,45,45,0,0,0,45,0ZM22.2,46.512l.189-.306L34.1,27.891a.4.4,0,0,1,.7.054c1.953,4.383,3.645,9.837,2.853,13.23a20.354,20.354,0,0,1-2.3,5.031c-.135.252-.279.5-.441.747a.4.4,0,0,1-.333.171H22.545a.4.4,0,0,1-.345-.612Zm52.173,6.3a.408.408,0,0,1-.243.378c-.909.387-4.014,1.818-5.3,3.609-3.292,4.581-5.8,11.133-11.43,11.133H33.948A15.07,15.07,0,0,1,18.9,52.83v-.27a.4.4,0,0,1,.405-.4H32.373a.448.448,0,0,1,.432.495,4.4,4.4,0,0,0,.468,2.511,4.594,4.594,0,0,0,4.127,2.56h6.471V52.677h-6.4a.414.414,0,0,1-.333-.648c.072-.108.144-.216.234-.342.6-.864,1.467-2.2,2.331-3.717a29.881,29.881,0,0,0,1.611-3.222c.09-.2.162-.4.243-.6.126-.351.252-.684.342-1.008.09-.279.171-.567.243-.837a13.138,13.138,0,0,0,.306-2.952c0-.4-.018-.828-.054-1.224-.018-.441-.072-.882-.126-1.323-.036-.387-.108-.774-.18-1.17-.1-.585-.225-1.17-.369-1.755l-.054-.225c-.108-.4-.207-.783-.333-1.188-.369-1.26-.783-2.493-1.233-3.645-.162-.459-.342-.9-.531-1.332-.27-.666-.549-1.269-.8-1.836-.135-.261-.243-.5-.351-.738-.126-.27-.252-.54-.387-.8-.09-.2-.2-.387-.27-.567l-.792-1.458a.259.259,0,0,1,.288-.378l4.95,1.341h.036l.648.189.72.2.261.072v-2.94A2.556,2.556,0,0,1,46.413,18a2.479,2.479,0,0,1,1.791.756,2.587,2.587,0,0,1,.747,1.818v4.365l.531.144a.744.744,0,0,1,.117.063c.126.09.315.234.549.414.189.144.387.324.621.513.477.387,1.053.882,1.674,1.449.162.144.324.288.477.441.8.747,1.7,1.62,2.565,2.592.243.279.477.549.72.846s.495.585.711.873c.3.387.6.792.882,1.215.126.2.279.4.4.6a18.842,18.842,0,0,1,.963,1.629c.126.252.252.531.36.8a11.143,11.143,0,0,1,.756,2.241,2.44,2.44,0,0,1,.108.495v.036a4.16,4.16,0,0,1,.09.693,7.714,7.714,0,0,1-.126,2.313c-.072.324-.162.63-.27.963-.117.315-.225.639-.369.954a12.945,12.945,0,0,1-.99,1.881c-.126.225-.279.459-.423.684-.162.234-.333.459-.477.675-.207.279-.423.567-.648.828a8.782,8.782,0,0,1-.621.783c-.306.369-.6.711-.918,1.044a7.809,7.809,0,0,1-.585.639c-.2.225-.4.423-.585.6-.315.315-.567.549-.783.756l-.513.459a.381.381,0,0,1-.27.108H48.951v5.049H53.91A4.612,4.612,0,0,0,56.925,56.6a36.612,36.612,0,0,0,3.06-3.006.354.354,0,0,1,.189-.117l13.689-3.96a.4.4,0,0,1,.513.387v2.9Z" fill="#fff"/>
</svg>
